<?xml version="1.0" encoding="utf-8"?>
<!-- Generator: Adobe Illustrator 23.0.0, SVG Export Plug-In . SVG Version: 6.00 Build 0)  -->
<svg version="1.1" id="Layer_1" xmlns="http://www.w3.org/2000/svg" xmlns:xlink="http://www.w3.org/1999/xlink" x="0px" y="0px"
	 viewBox="0 0 595.28 841.89" style="enable-background:new 0 0 595.28 841.89;" xml:space="preserve">
<style type="text/css">
	.st0{clip-path:url(#SVGID_2_);}
	.st1{fill:url(#SVGID_3_);}
	.st2{fill:url(#SVGID_4_);}
</style>
<g>
	<g>
		<defs>
			<polygon id="SVGID_1_" points="189.32,264.51 207.83,259.63 199.44,273 			"/>
		</defs>
		<clipPath id="SVGID_2_">
			<use xlink:href="#SVGID_1_"  style="overflow:visible;"/>
		</clipPath>
		<g class="st0">
		</g>
	</g>
</g>
<linearGradient id="SVGID_3_" gradientUnits="userSpaceOnUse" x1="194.5197" y1="260.0894" x2="195.9239" y2="269.8235">
	<stop  offset="0" style="stop-color:#FFF33B"/>
	<stop  offset="0" style="stop-color:#FFE943"/>
	<stop  offset="0" style="stop-color:#E8CB59"/>
	<stop  offset="0" style="stop-color:#D7B564"/>
	<stop  offset="0" style="stop-color:#CCA669"/>
	<stop  offset="0" style="stop-color:#C69D6B"/>
	<stop  offset="0" style="stop-color:#C49A6C"/>
	<stop  offset="0" style="stop-color:#C49A6C"/>
	<stop  offset="6.766293e-07" style="stop-color:#C49A6C;stop-opacity:0.7"/>
	<stop  offset="1" style="stop-color:#603913"/>
</linearGradient>
<path class="st1" d="M192.42,263.37c0-1.52,1.08-1.83,1.91-1.82c0,0,2.06,0.06,3.24,0.14c0.35,0.02,0.62,0.32,0.62,0.67l0,0.77
	h-3.47c-0.62,0-0.62,0.35-0.62,0.67v1.37l2.9,0.1c0.36,0.01,0.65,0.31,0.65,0.67v0.74l-3.55,0.11v1.37c0,0.64,0.4,0.62,0.74,0.62
	h3.35l0,0.76c0,0.35-0.27,0.65-0.62,0.67c-1.13,0.08-3.12,0.15-3.12,0.15c-0.78,0.04-2.03-0.14-2.03-1.76V263.37z"/>
<linearGradient id="SVGID_4_" gradientUnits="userSpaceOnUse" x1="204.8401" y1="260.7617" x2="197.3082" y2="269.9851">
	<stop  offset="0" style="stop-color:#FFF33B"/>
	<stop  offset="0" style="stop-color:#FFE943"/>
	<stop  offset="0" style="stop-color:#E8CB59"/>
	<stop  offset="0" style="stop-color:#D7B564"/>
	<stop  offset="0" style="stop-color:#CCA669"/>
	<stop  offset="0" style="stop-color:#C69D6B"/>
	<stop  offset="0" style="stop-color:#C49A6C"/>
	<stop  offset="0" style="stop-color:#C49A6C"/>
	<stop  offset="6.766293e-07" style="stop-color:#C49A6C;stop-opacity:0.7"/>
	<stop  offset="1" style="stop-color:#603913"/>
</linearGradient>
<path class="st2" d="M199.35,261.56h4.94c0.43,0,0.77,0.35,0.77,0.77l0,0c0,0.43-0.35,0.77-0.77,0.77h-0.89
	c-0.43,0-0.77,0.35-0.77,0.77v5.68c0,0.43-0.35,0.77-0.77,0.77h-0.13c-0.43,0-0.77-0.35-0.77-0.77v-5.68c0-0.43-0.35-0.77-0.77-0.77
	h-0.83c-0.43,0-0.77-0.35-0.77-0.77l0,0C198.57,261.91,198.92,261.56,199.35,261.56z"/>
</svg>
